<svg version="1.1" id="Layer_1" xmlns="http://www.w3.org/2000/svg" x="0px" y="0px"
     width="100%" viewBox="0 0 192 192" enable-background="new 0 0 192 192" xml:space="preserve">
<path fill="#131313" opacity="1.000000" stroke="none"
      d="
M138.000000,193.000000 
	C92.029640,193.000000 46.559273,193.000000 1.044455,193.000000 
	C1.044455,129.071350 1.044455,65.142662 1.044455,1.106986 
	C64.886826,1.106986 128.773895,1.106986 192.830475,1.106986 
	C192.830475,64.999626 192.830475,128.999786 192.830475,193.000000 
	C174.809616,193.000000 156.654800,193.000000 138.000000,193.000000 
M128.713898,92.154503 
	C128.713898,100.087204 128.713898,108.019905 128.713898,115.866974 
	C139.962631,115.866974 150.355255,115.866974 160.709778,115.866974 
	C166.875397,56.066402 128.304596,27.179485 78.079140,33.489582 
	C78.079140,43.871456 78.079140,54.262684 78.079140,65.001213 
	C83.948425,65.001213 89.578407,64.996132 95.208374,65.002151 
	C112.563942,65.020714 124.495682,74.438835 128.713898,92.154503 
M70.077194,114.281555 
	C62.325432,103.111191 66.035988,90.145866 64.738541,78.159508 
	C53.999310,78.159508 43.602654,78.159508 33.247990,78.159508 
	C27.085850,140.732819 68.779274,166.781372 115.863358,160.445984 
	C115.863358,150.037689 115.863358,139.641968 115.863358,128.998856 
	C109.752792,128.998856 103.943718,128.968170 98.135078,129.005325 
	C86.470741,129.079926 77.244492,124.416092 70.077194,114.281555 
z"/>
    <path fill="#FEFEFE" opacity="1.000000" stroke="none"
          d="
M128.624634,91.728607 
	C124.495682,74.438835 112.563942,65.020714 95.208374,65.002151 
	C89.578407,64.996132 83.948425,65.001213 78.079140,65.001213 
	C78.079140,54.262684 78.079140,43.871456 78.079140,33.489582 
	C128.304596,27.179485 166.875397,56.066402 160.709778,115.866974 
	C150.355255,115.866974 139.962631,115.866974 128.713898,115.866974 
	C128.713898,108.019905 128.713898,100.087204 128.624634,91.728607 
z"/>
    <path fill="#FEFEFE" opacity="1.000000" stroke="none"
          d="
M70.285370,114.584763 
	C77.244492,124.416092 86.470741,129.079926 98.135078,129.005325 
	C103.943718,128.968170 109.752792,128.998856 115.863358,128.998856 
	C115.863358,139.641968 115.863358,150.037689 115.863358,160.445984 
	C68.779274,166.781372 27.085850,140.732819 33.247990,78.159508 
	C43.602654,78.159508 53.999310,78.159508 64.738541,78.159508 
	C66.035988,90.145866 62.325432,103.111191 70.285370,114.584763 
z"/>
</svg>