<svg width="116" height="116" viewBox="0 0 116 116" fill="none" xmlns="http://www.w3.org/2000/svg">
    <path d="M57.833 0C25.894 0 0 25.894 0 57.833C0 89.773 25.893 115.668 57.833 115.668C89.774 115.668 115.669 89.773 115.669 57.833C115.668 25.894 89.774 0 57.833 0ZM33.835 26.084C37.769 26.084 40.96 28.994 40.96 32.584C40.96 36.174 37.769 39.084 33.835 39.084C29.899 39.084 26.71 36.174 26.71 32.584C26.71 28.994 29.899 26.084 33.835 26.084ZM41.014 81.679H26.936V44.944H41.014V81.679ZM88.852 81.679H74.706V61.479C74.706 59.173 74.278 57.541 73.425 56.583C72.571 55.627 71.372 55.147 69.829 55.147C68.122 55.147 66.737 55.793 65.677 57.085C64.616 58.377 64.087 60.694 64.087 64.038V81.679H50.008V44.944H63.117V50.927C65.076 48.484 67.06 46.737 69.066 45.687C71.072 44.638 73.515 44.114 76.398 44.114C80.296 44.114 83.345 45.272 85.548 47.59C87.749 49.907 88.851 53.487 88.851 58.33L88.852 81.679Z"
          fill="currentColor"/>
</svg>
