<svg width="1080" height="1080" viewBox="0 0 1080 1080" fill="none" xmlns="http://www.w3.org/2000/svg">
<rect width="1080" height="1080" rx="540" fill="#334A50"/>
<rect x="170" y="309" width="446" height="446" fill="#232323" stroke="black" stroke-width="4"/>
<rect x="616" y="384" width="296" height="296" fill="#343434" stroke="black" stroke-width="4"/>
<rect width="4" height="120" transform="matrix(-1 0 0 1 172 187)" fill="black"/>
<rect width="4" height="120" transform="matrix(-1 0 0 1 172 757)" fill="black"/>
<path d="M725.708 594C718.508 594 711.708 592.867 705.308 590.6C698.908 588.267 693.508 584.633 689.108 579.7C684.708 574.767 681.941 568.4 680.808 560.6H702.208C703.541 566.333 706.474 570.467 711.008 573C715.541 575.533 720.408 576.8 725.608 576.8C731.808 576.8 736.808 575.733 740.608 573.6C744.474 571.467 746.408 568.167 746.408 563.7C746.408 560.433 745.341 557.833 743.208 555.9C741.074 553.967 737.674 552.5 733.008 551.5L713.308 547C704.508 545.067 697.474 541.867 692.208 537.4C686.941 532.933 684.274 526.633 684.208 518.5C684.141 509.3 687.608 501.7 694.608 495.7C701.674 489.633 712.074 486.6 725.808 486.6C737.808 486.6 747.441 489.3 754.708 494.7C762.041 500.033 765.808 507.667 766.008 517.6H745.308C744.574 513.2 742.474 509.733 739.008 507.2C735.541 504.667 731.041 503.4 725.508 503.4C719.774 503.4 715.074 504.5 711.408 506.7C707.741 508.9 705.908 512.267 705.908 516.8C705.908 519.933 707.274 522.433 710.008 524.3C712.808 526.1 717.041 527.6 722.708 528.8L741.308 533.3C748.374 535.1 753.808 537.667 757.608 541C761.408 544.333 764.008 547.933 765.408 551.8C766.874 555.6 767.608 559.1 767.608 562.3C767.608 572.3 763.808 580.1 756.208 585.7C748.674 591.233 738.508 594 725.708 594ZM846.975 505.8H823.875L823.975 565.1C823.975 569.7 824.775 572.567 826.375 573.7C827.975 574.767 830.775 575.3 834.775 575.3H847.475V590.7C846.142 591.233 844.108 591.7 841.375 592.1C838.642 592.567 835.042 592.8 830.575 592.8C822.375 592.8 816.042 591.733 811.575 589.6C807.108 587.467 803.975 584.4 802.175 580.4C800.442 576.333 799.575 571.533 799.575 566V505.8H782.775V488.6H800.275L806.375 457.9H823.875V488.5H846.975V505.8Z" fill="#ECB4CF"/>
<path d="M325.181 661.3C299.081 661.3 279.031 657.75 265.031 650.65C251.031 643.65 244.031 634.1 244.031 622C244.031 616.6 245.381 612.05 248.081 608.35C250.781 604.55 253.981 601.45 257.681 599.05C261.381 596.65 264.781 594.8 267.881 593.5C270.981 592.2 272.981 591.25 273.881 590.65C272.181 589.65 269.931 588.35 267.131 586.75C264.331 585.15 261.781 582.95 259.481 580.15C257.281 577.35 256.181 573.7 256.181 569.2C256.181 564 258.631 559.2 263.531 554.8C268.531 550.4 275.981 547.25 285.881 545.35C276.181 540.65 268.731 534.35 263.531 526.45C258.331 518.45 255.731 510.1 255.731 501.4C255.731 491.2 258.681 482.45 264.581 475.15C270.581 467.85 278.881 462.25 289.481 458.35C300.081 454.45 312.431 452.5 326.531 452.5C336.931 452.5 345.531 453.65 352.331 455.95C359.131 458.25 365.481 461.35 371.381 465.25C374.081 464.15 378.131 462.55 383.531 460.45C388.931 458.25 394.481 456 400.181 453.7C405.881 451.3 410.581 449.35 414.281 447.85L413.981 478L387.131 482.8C389.931 489.1 391.331 495.25 391.331 501.25C391.331 510.25 388.781 518.6 383.681 526.3C378.681 533.9 371.131 540 361.031 544.6C351.031 549.2 338.531 551.5 323.531 551.5C322.031 551.5 319.981 551.45 317.381 551.35C314.781 551.25 312.681 551.15 311.081 551.05C302.981 551.35 297.431 552.3 294.431 553.9C291.431 555.5 289.931 557.25 289.931 559.15C289.931 561.85 292.181 563.7 296.681 564.7C301.181 565.6 308.381 566.35 318.281 566.95C321.781 567.15 326.381 567.45 332.081 567.85C337.781 568.15 344.131 568.5 351.131 568.9C368.831 570.1 382.231 574.55 391.331 582.25C400.431 589.95 404.981 599.95 404.981 612.25C404.981 626.55 398.381 638.3 385.181 647.5C371.981 656.7 351.981 661.3 325.181 661.3ZM324.731 530.05C334.231 530.05 341.931 527.65 347.831 522.85C353.731 517.95 356.681 511.05 356.681 502.15C356.681 493.05 353.731 485.9 347.831 480.7C341.931 475.5 334.231 472.9 324.731 472.9C315.031 472.9 307.181 475.5 301.181 480.7C295.281 485.9 292.331 493.05 292.331 502.15C292.331 510.85 295.181 517.7 300.881 522.7C306.581 527.6 314.531 530.05 324.731 530.05ZM331.331 639.85C357.031 639.85 369.881 632.75 369.881 618.55C369.881 613.25 367.731 608.9 363.431 605.5C359.131 602 352.731 599.95 344.231 599.35L305.081 596.95C298.581 596.55 292.731 598.45 287.531 602.65C282.431 606.85 279.881 611.85 279.881 617.65C279.881 625.05 284.031 630.6 292.331 634.3C300.731 638 313.731 639.85 331.331 639.85ZM443.538 610V454.9H478.488V488.5C482.288 477 488.388 468.05 496.788 461.65C505.288 455.15 515.088 451.9 526.188 451.9C527.988 451.9 529.688 452 531.288 452.2C532.988 452.4 534.288 452.75 535.188 453.25V488.2C534.088 487.7 532.638 487.35 530.838 487.15C529.138 486.95 527.638 486.85 526.338 486.85C511.338 485.65 499.838 488 491.838 493.9C483.938 499.7 479.988 508.35 479.988 519.85V610H443.538Z" fill="#9A2C5D"/>
<rect x="826" y="678" width="139" height="4" fill="black"/>
</svg>
