<svg width="128" height="128" viewBox="0 0 128 128" fill="none" xmlns="http://www.w3.org/2000/svg">
    <path fill-rule="evenodd" clip-rule="evenodd"
          d="M128 0H0V128H128V0ZM52.52 115.815C62.9486 115.815 70.0914 110.267 70.0914 98.0884V57.9099H57.901V96.2314C57.901 102.112 55.6748 103.624 51.8058 103.624C47.7581 103.624 44.9486 101.1 43.1034 97.8267L33.52 103.624C36.2938 109.493 43.0914 115.815 52.52 115.815ZM76.1866 103.624C79.6033 110.374 85.7343 115.815 96.5319 115.815C107.579 115.815 115.806 110.077 115.806 99.6123C115.806 89.8979 110.234 85.5767 100.341 81.3503L97.4366 80.1003C92.4485 77.9338 90.2938 76.5291 90.2938 73.0408C90.2938 70.2195 92.4485 68.0527 95.8533 68.0527C99.1986 68.0527 101.341 69.4575 103.341 73.0408L112.389 67.2195C108.556 60.4814 103.246 57.9099 95.8533 57.9099C85.4724 57.9099 78.8176 64.5527 78.8176 73.2671C78.8176 82.7432 84.4009 87.2195 92.7938 90.7908L95.6986 92.0408C100.996 94.3623 103.615 95.7791 103.615 99.7551C103.615 103.088 101.091 105.493 96.27 105.493C90.5319 105.493 87.8176 101.6 85.3295 97.5291L76.1866 103.624Z"
          fill="currentColor"/>
</svg>
